<svg width="170" height="53" viewBox="0 0 170 53" fill="none" xmlns="http://www.w3.org/2000/svg">
<g clip-path="url(#clip0_1_9107)">
<path d="M89.6458 13.3163C89.6458 15.2262 88.1134 16.7648 86.2111 16.7648C84.3087 16.7648 82.7763 15.2262 82.7763 13.3163C82.7763 11.4064 84.2559 9.86787 86.2111 9.86787C88.1662 9.92092 89.6458 11.4595 89.6458 13.3163ZM75.484 20.2663C75.484 20.5846 75.484 21.1151 75.484 21.1151C75.484 21.1151 73.8459 18.993 70.3583 18.993C64.5985 18.993 60.1069 23.3964 60.1069 29.4975C60.1069 35.5455 64.5456 40.002 70.3583 40.002C73.8988 40.002 75.484 37.8268 75.484 37.8268V38.7287C75.484 39.1532 75.8011 39.4715 76.2238 39.4715H80.5041V19.5235C80.5041 19.5235 76.5937 19.5235 76.2238 19.5235C75.8011 19.5235 75.484 19.8949 75.484 20.2663ZM75.484 33.0521C74.6914 34.2192 73.1061 35.2272 71.2038 35.2272C67.8219 35.2272 65.2326 33.1051 65.2326 29.4975C65.2326 25.8899 67.8219 23.7678 71.2038 23.7678C73.0533 23.7678 74.7442 24.8288 75.484 25.9429V33.0521ZM83.6746 19.5235H88.7475V39.4715H83.6746V19.5235ZM159.451 18.993C155.963 18.993 154.325 21.1151 154.325 21.1151V9.92092H149.252V39.4715C149.252 39.4715 153.163 39.4715 153.532 39.4715C153.955 39.4715 154.272 39.1001 154.272 38.7287V37.8268C154.272 37.8268 155.91 40.002 159.398 40.002C165.158 40.002 169.649 35.5455 169.649 29.4975C169.649 23.4494 165.158 18.993 159.451 18.993ZM158.605 35.1742C156.65 35.1742 155.118 34.1662 154.325 32.999V25.8899C155.118 24.8288 156.809 23.7147 158.605 23.7147C161.987 23.7147 164.577 25.8368 164.577 29.4444C164.577 33.0521 161.987 35.1742 158.605 35.1742ZM146.61 27.6406V39.5245H141.537V28.2242C141.537 24.9349 140.48 23.6086 137.627 23.6086C136.094 23.6086 134.509 24.4044 133.505 25.5716V39.4715H128.432V19.5235H132.448C132.871 19.5235 133.188 19.8949 133.188 20.2663V21.1151C134.668 19.5766 136.623 18.993 138.578 18.993C140.797 18.993 142.647 19.6296 144.126 20.9029C145.923 22.3884 146.61 24.2983 146.61 27.6406ZM116.12 18.993C112.632 18.993 110.994 21.1151 110.994 21.1151V9.92092H105.921V39.4715C105.921 39.4715 109.832 39.4715 110.202 39.4715C110.624 39.4715 110.941 39.1001 110.941 38.7287V37.8268C110.941 37.8268 112.579 40.002 116.067 40.002C121.827 40.002 126.319 35.5455 126.319 29.4975C126.371 23.4494 121.88 18.993 116.12 18.993ZM115.274 35.1742C113.319 35.1742 111.787 34.1662 110.994 32.999V25.8899C111.787 24.8288 113.478 23.7147 115.274 23.7147C118.656 23.7147 121.246 25.8368 121.246 29.4444C121.246 33.0521 118.656 35.1742 115.274 35.1742ZM101.535 18.993C103.068 18.993 103.86 19.2583 103.86 19.2583V23.98C103.86 23.98 99.6331 22.5475 96.991 25.5716V39.5245H91.9181V19.5235C91.9181 19.5235 95.8284 19.5235 96.1983 19.5235C96.6211 19.5235 96.9381 19.8949 96.9381 20.2663V21.1151C97.8893 20.001 99.9501 18.993 101.535 18.993ZM48.8514 37.6677C48.5872 37.031 48.323 36.3413 48.0588 35.7578C47.636 34.8028 47.2133 33.9009 46.8434 33.0521L46.7906 32.999C43.1444 25.041 39.2341 16.977 35.1124 9.01902L34.9538 8.7007C34.5311 7.9049 34.1083 7.05606 33.6856 6.20721C33.1572 5.25225 32.6288 4.24424 31.7833 3.28929C30.0923 1.16717 27.6616 0 25.0723 0C22.4301 0 20.0522 1.16717 18.3084 3.18318C17.5158 4.13814 16.9345 5.14615 16.4061 6.1011C15.9834 6.94995 15.5606 7.7988 15.1379 8.59459L14.9793 8.91291C10.9105 16.8709 6.94729 24.9349 3.30115 32.8929L3.24831 32.999C2.87841 33.8478 2.45567 34.7498 2.03293 35.7047C1.76872 36.2883 1.50451 36.9249 1.24029 37.6146C0.55334 39.5776 0.34197 41.4344 0.606182 43.3443C1.18745 47.3233 3.82958 50.6657 7.47571 52.1511C8.84962 52.7347 10.2764 53 11.756 53C12.1787 53 12.7071 52.9469 13.1299 52.8939C14.8737 52.6817 16.6703 52.0981 18.4141 51.0901C20.5807 49.8699 22.6415 48.1191 24.9666 45.5726C27.2917 48.1191 29.4054 49.8699 31.5191 51.0901C33.2629 52.0981 35.0595 52.6817 36.8033 52.8939C37.2261 52.9469 37.7545 53 38.1772 53C39.6568 53 41.1364 52.7347 42.4575 52.1511C46.1564 50.6657 48.7457 47.2703 49.327 43.3443C49.7497 41.4875 49.5384 39.6306 48.8514 37.6677ZM25.0194 40.4264C22.1659 36.8188 20.3164 33.4234 19.6823 30.5586C19.4181 29.3383 19.3653 28.2773 19.5238 27.3223C19.6295 26.4735 19.9465 25.7307 20.3693 25.0941C21.3733 23.6617 23.0643 22.7598 25.0194 22.7598C26.9746 22.7598 28.7184 23.6086 29.6696 25.0941C30.0923 25.7307 30.4094 26.4735 30.5151 27.3223C30.6736 28.2773 30.6207 29.3914 30.3565 30.5586C29.7224 33.3704 27.8729 36.7658 25.0194 40.4264ZM46.1036 42.9199C45.7337 45.6787 43.8842 48.0661 41.2949 49.1271C40.0267 49.6577 38.6528 49.8168 37.2789 49.6577C35.9578 49.4985 34.6368 49.0741 33.2629 48.2783C31.3605 47.2172 29.4582 45.5726 27.2388 43.1321C30.7264 38.8348 32.8401 34.9089 33.6328 31.4074C34.0027 29.7628 34.0555 28.2773 33.897 26.8979C33.6856 25.5716 33.21 24.3514 32.4702 23.2903C30.8321 20.9029 28.0843 19.5235 25.0194 19.5235C21.9546 19.5235 19.2068 20.956 17.5686 23.2903C16.8288 24.3514 16.3533 25.5716 16.1419 26.8979C15.9305 28.2773 15.9834 29.8158 16.4061 31.4074C17.1987 34.9089 19.3653 38.8879 22.8 43.1852C20.6335 45.6256 18.6783 47.2703 16.776 48.3313C15.4021 49.1271 14.081 49.5515 12.76 49.7107C11.3332 49.8699 9.95931 49.6577 8.74393 49.1802C6.15465 48.1191 4.30516 45.7317 3.93526 42.973C3.77673 41.6466 3.88242 40.3203 4.41084 38.8348C4.56937 38.3043 4.83358 37.7738 5.0978 37.1371C5.46769 36.2883 5.89044 35.3864 6.31318 34.4845L6.36602 34.3784C10.0122 26.4735 13.9225 18.4094 17.9914 10.5576L18.1499 10.2392C18.5726 9.44344 18.9954 8.59459 19.4181 7.7988C19.8409 6.94995 20.3164 6.15415 20.8977 5.46446C22.0074 4.19119 23.487 3.5015 25.1251 3.5015C26.7632 3.5015 28.2428 4.19119 29.3525 5.46446C29.9338 6.15415 30.4094 6.94995 30.8321 7.7988C31.2549 8.59459 31.6776 9.44344 32.1003 10.2392L32.2589 10.5576C36.2749 18.4625 40.1852 26.5265 43.8314 34.4314V34.4845C44.2541 35.3333 44.624 36.2883 45.0467 37.1371C45.311 37.7738 45.5752 38.3043 45.7337 38.8348C46.1564 40.2142 46.315 41.5405 46.1036 42.9199Z" fill="#FF385C"/>
</g>
<defs>
<clipPath id="clip0_1_9107">
<rect width="169.149" height="53" fill="white" transform="translate(0.5)"/>
</clipPath>
</defs>
</svg>
