<svg width="185" height="44" viewBox="0 0 185 44" fill="none" xmlns="http://www.w3.org/2000/svg">
<g clip-path="url(#clip0_1_2371)">
<mask id="mask0_1_2371" style="mask-type:luminance" maskUnits="userSpaceOnUse" x="54" y="14" width="16" height="19">
<path d="M56.767 31.9037C56.0897 31.644 55.6466 31.0962 55.6466 30.366C55.6466 29.4803 56.3758 28.7511 57.262 28.7511C57.5224 28.7511 57.7304 28.8029 57.9131 28.8809C59.0597 29.4023 60.2838 29.7148 61.7692 29.7148C64.4784 29.7148 65.7553 28.4122 65.7553 25.9098V25.2323C64.5821 26.6401 63.3065 27.4994 61.1962 27.4994C57.9393 27.4994 54.9946 25.1279 54.9946 20.9841V20.9323C54.9946 16.7623 57.9912 14.417 61.1962 14.417C63.358 14.417 64.6349 15.329 65.7025 16.5016V16.4754C65.7025 15.4072 66.5887 14.5215 67.6829 14.5215C68.7771 14.5215 69.662 15.4072 69.662 16.5016V25.493C69.662 27.9954 69.0641 29.8193 67.8909 30.9917C66.5887 32.2952 64.5821 32.8684 61.8735 32.8684C60.023 32.8684 58.4081 32.5559 56.767 31.9037ZM65.7553 20.9841V20.9323C65.7553 19.0295 64.2699 17.7007 62.3423 17.7007C60.4147 17.7007 58.9554 19.0295 58.9554 20.9323V20.9841C58.9554 22.9124 60.4147 24.2159 62.3423 24.2159C64.2699 24.2159 65.7553 22.887 65.7553 20.9841Z" fill="white"/>
</mask>
<g mask="url(#mask0_1_2371)">
<mask id="mask1_1_2371" style="mask-type:luminance" maskUnits="userSpaceOnUse" x="0" y="0" width="185" height="44">
<path d="M0 43.2906H185V-2.67029e-05H0V43.2906Z" fill="white"/>
</mask>
<g mask="url(#mask1_1_2371)">
<path d="M50.4824 37.3776H74.1741V9.90729H50.4824V37.3776Z" fill="#4B4B4B"/>
</g>
</g>
<mask id="mask2_1_2371" style="mask-type:luminance" maskUnits="userSpaceOnUse" x="71" y="14" width="10" height="15">
<path d="M71.9041 16.5013C71.9041 15.4069 72.7893 14.5212 73.8845 14.5212C74.9782 14.5212 75.8635 15.4069 75.8635 16.5013V17.1263C76.4375 15.7721 77.3746 14.5212 78.5478 14.5212C79.7724 14.5212 80.475 15.3287 80.475 16.4487C80.475 17.4915 79.7977 18.1173 78.9909 18.2998C76.9839 18.7695 75.8635 20.3062 75.8635 23.1211V26.8214C75.8635 27.9161 74.9782 28.8026 73.8845 28.8026C72.7893 28.8026 71.9041 27.9161 71.9041 26.8214V16.5013Z" fill="white"/>
</mask>
<g mask="url(#mask2_1_2371)">
<mask id="mask3_1_2371" style="mask-type:luminance" maskUnits="userSpaceOnUse" x="0" y="0" width="185" height="44">
<path d="M-6.10352e-05 43.2908H185V9.53674e-05H-6.10352e-05V43.2908Z" fill="white"/>
</mask>
<g mask="url(#mask3_1_2371)">
<path d="M67.3918 33.3119H84.9875V10.0116H67.3918V33.3119Z" fill="#4B4B4B"/>
</g>
</g>
<mask id="mask4_1_2371" style="mask-type:luminance" maskUnits="userSpaceOnUse" x="80" y="14" width="13" height="15">
<path d="M80.0066 24.6323V24.5807C80.0066 21.5315 82.325 20.1236 85.6342 20.1236C87.0407 20.1236 88.0568 20.3578 89.0472 20.6968V20.4623C89.0472 18.8211 88.0306 17.9081 86.0511 17.9081C84.9569 17.9081 84.0707 18.0654 83.3154 18.2997C83.0812 18.3777 82.9251 18.4042 82.7423 18.4042C81.8309 18.4042 81.1008 17.7003 81.1008 16.7873C81.1008 16.0845 81.543 15.4848 82.1693 15.2497C83.4196 14.7809 84.7746 14.5211 86.6242 14.5211C88.786 14.5211 90.3494 15.0943 91.339 16.0845C92.3817 17.1262 92.851 18.6648 92.851 20.5414V26.8995C92.851 27.9686 91.991 28.8025 90.9225 28.8025C89.7764 28.8025 89.0211 27.995 89.0211 27.1602V27.1338C88.0568 28.2029 86.7284 28.9059 84.7999 28.9059C82.1693 28.9059 80.0066 27.3954 80.0066 24.6323ZM89.0991 23.7204V23.0165C88.4218 22.704 87.5365 22.4951 86.5714 22.4951C84.878 22.4951 83.8365 23.1727 83.8365 24.4244V24.4762C83.8365 25.5453 84.7227 26.1701 85.9983 26.1701C87.8488 26.1701 89.0991 25.1537 89.0991 23.7204Z" fill="white"/>
</mask>
<g mask="url(#mask4_1_2371)">
<mask id="mask5_1_2371" style="mask-type:luminance" maskUnits="userSpaceOnUse" x="0" y="0" width="185" height="44">
<path d="M-6.10352e-05 43.291H185V0.000339508H-6.10352e-05V43.291Z" fill="white"/>
</mask>
<g mask="url(#mask5_1_2371)">
<path d="M75.4944 33.4154H97.363V10.0117H75.4944V33.4154Z" fill="#4B4B4B"/>
</g>
</g>
<mask id="mask6_1_2371" style="mask-type:luminance" maskUnits="userSpaceOnUse" x="94" y="14" width="23" height="15">
<path d="M94.9618 16.5013C94.9618 15.4069 95.8471 14.5212 96.9422 14.5212C98.0364 14.5212 98.9226 15.4069 98.9226 16.5013V16.6586C99.8332 15.485 101.032 14.4168 103.038 14.4168C104.862 14.4168 106.243 15.2242 106.971 16.6322C108.197 15.1989 109.656 14.4168 111.557 14.4168C114.501 14.4168 116.273 16.189 116.273 19.5515V26.8214C116.273 27.9161 115.387 28.8026 114.292 28.8026C113.199 28.8026 112.313 27.9161 112.313 26.8214V20.854C112.313 18.9775 111.479 18.0129 109.994 18.0129C108.509 18.0129 107.597 18.9775 107.597 20.854V26.8214C107.597 27.9161 106.712 28.8026 105.617 28.8026C104.523 28.8026 103.636 27.9161 103.636 26.8214V20.854C103.636 18.9775 102.804 18.0129 101.319 18.0129C99.8332 18.0129 98.9226 18.9775 98.9226 20.854V26.8214C98.9226 27.9161 98.0364 28.8026 96.9422 28.8026C95.8471 28.8026 94.9618 27.9161 94.9618 26.8214V16.5013Z" fill="white"/>
</mask>
<g mask="url(#mask6_1_2371)">
<mask id="mask7_1_2371" style="mask-type:luminance" maskUnits="userSpaceOnUse" x="0" y="0" width="185" height="44">
<path d="M-6.10352e-05 43.2908H185V9.53674e-05H-6.10352e-05V43.2908Z" fill="white"/>
</mask>
<g mask="url(#mask7_1_2371)">
<path d="M90.4496 33.3119H120.785V9.90715H90.4496V33.3119Z" fill="#4B4B4B"/>
</g>
</g>
<mask id="mask8_1_2371" style="mask-type:luminance" maskUnits="userSpaceOnUse" x="118" y="14" width="22" height="15">
<path d="M118.41 16.5013C118.41 15.4069 119.296 14.5212 120.391 14.5212C121.485 14.5212 122.371 15.4069 122.371 16.5013V16.6586C123.282 15.485 124.481 14.4168 126.487 14.4168C128.31 14.4168 129.691 15.2242 130.42 16.6322C131.645 15.1989 133.104 14.4168 135.005 14.4168C137.95 14.4168 139.721 16.189 139.721 19.5515V26.8214C139.721 27.9161 138.836 28.8026 137.741 28.8026C136.647 28.8026 135.761 27.9161 135.761 26.8214V20.854C135.761 18.9775 134.927 18.0129 133.443 18.0129C131.957 18.0129 131.045 18.9775 131.045 20.854V26.8214C131.045 27.9161 130.161 28.8026 129.066 28.8026C127.971 28.8026 127.086 27.9161 127.086 26.8214V20.854C127.086 18.9775 126.253 18.0129 124.767 18.0129C123.282 18.0129 122.371 18.9775 122.371 20.854V26.8214C122.371 27.9161 121.485 28.8026 120.391 28.8026C119.296 28.8026 118.41 27.9161 118.41 26.8214V16.5013Z" fill="white"/>
</mask>
<g mask="url(#mask8_1_2371)">
<mask id="mask9_1_2371" style="mask-type:luminance" maskUnits="userSpaceOnUse" x="0" y="0" width="185" height="44">
<path d="M0 43.2908H185V9.53674e-05H0V43.2908Z" fill="white"/>
</mask>
<g mask="url(#mask9_1_2371)">
<path d="M113.898 33.3119H144.234V9.90715H113.898V33.3119Z" fill="#4B4B4B"/>
</g>
</g>
<mask id="mask10_1_2371" style="mask-type:luminance" maskUnits="userSpaceOnUse" x="141" y="14" width="13" height="15">
<path d="M141.026 24.6323V24.5807C141.026 21.5315 143.344 20.1236 146.652 20.1236C148.059 20.1236 149.075 20.3578 150.065 20.6968V20.4623C150.065 18.8211 149.05 17.9081 147.069 17.9081C145.974 17.9081 145.089 18.0654 144.334 18.2997C144.1 18.3777 143.944 18.4042 143.761 18.4042C142.848 18.4042 142.119 17.7003 142.119 16.7873C142.119 16.0845 142.562 15.4848 143.187 15.2497C144.439 14.7809 145.793 14.5211 147.643 14.5211C149.805 14.5211 151.368 15.0943 152.357 16.0845C153.4 17.1262 153.869 18.6648 153.869 20.5414V26.8995C153.869 27.9686 153.009 28.8025 151.942 28.8025C150.795 28.8025 150.04 27.995 150.04 27.1602V27.1338C149.075 28.2029 147.746 28.9059 145.819 28.9059C143.187 28.9059 141.026 27.3954 141.026 24.6323ZM150.118 23.7204V23.0165C149.44 22.704 148.554 22.4951 147.591 22.4951C145.896 22.4951 144.855 23.1727 144.855 24.4244V24.4762C144.855 25.5453 145.74 26.1701 147.017 26.1701C148.866 26.1701 150.118 25.1537 150.118 23.7204Z" fill="white"/>
</mask>
<g mask="url(#mask10_1_2371)">
<mask id="mask11_1_2371" style="mask-type:luminance" maskUnits="userSpaceOnUse" x="0" y="0" width="185" height="44">
<path d="M0 43.291H185V0.000339508H0V43.291Z" fill="white"/>
</mask>
<g mask="url(#mask11_1_2371)">
<path d="M136.513 33.4154H158.381V10.0117H136.513V33.4154Z" fill="#4B4B4B"/>
</g>
</g>
<mask id="mask12_1_2371" style="mask-type:luminance" maskUnits="userSpaceOnUse" x="155" y="14" width="10" height="15">
<path d="M155.979 16.5013C155.979 15.4069 156.866 14.5212 157.96 14.5212C159.055 14.5212 159.94 15.4069 159.94 16.5013V17.1263C160.513 15.7721 161.451 14.5212 162.624 14.5212C163.848 14.5212 164.551 15.3287 164.551 16.4487C164.551 17.4915 163.873 18.1173 163.066 18.2998C161.061 18.7695 159.94 20.3062 159.94 23.1211V26.8214C159.94 27.9161 159.055 28.8026 157.96 28.8026C156.866 28.8026 155.979 27.9161 155.979 26.8214V16.5013Z" fill="white"/>
</mask>
<g mask="url(#mask12_1_2371)">
<mask id="mask13_1_2371" style="mask-type:luminance" maskUnits="userSpaceOnUse" x="0" y="0" width="185" height="44">
<path d="M0 43.2908H185V9.53674e-05H0V43.2908Z" fill="white"/>
</mask>
<g mask="url(#mask13_1_2371)">
<path d="M151.467 33.3119H169.063V10.0116H151.467V33.3119Z" fill="#4B4B4B"/>
</g>
</g>
<mask id="mask14_1_2371" style="mask-type:luminance" maskUnits="userSpaceOnUse" x="165" y="9" width="5" height="20">
<path d="M165.75 11.4448C165.75 10.3503 166.635 9.46485 167.73 9.46485C168.825 9.46485 169.711 10.3503 169.711 11.4448V26.8214C169.711 27.9161 168.825 28.8026 167.73 28.8026C166.635 28.8026 165.75 27.9161 165.75 26.8214V11.4448Z" fill="white"/>
</mask>
<g mask="url(#mask14_1_2371)">
<mask id="mask15_1_2371" style="mask-type:luminance" maskUnits="userSpaceOnUse" x="0" y="0" width="185" height="44">
<path d="M-6.10352e-05 43.2908H185V9.53674e-05H-6.10352e-05V43.2908Z" fill="white"/>
</mask>
<g mask="url(#mask15_1_2371)">
<path d="M161.238 33.3119H174.223V4.95523H161.238V33.3119Z" fill="#4B4B4B"/>
</g>
</g>
<mask id="mask16_1_2371" style="mask-type:luminance" maskUnits="userSpaceOnUse" x="171" y="14" width="14" height="19">
<path d="M172.863 32.5291C172.289 32.3213 171.612 31.8517 171.612 30.8879C171.612 29.9233 172.368 29.271 173.176 29.271C173.488 29.271 173.67 29.3237 173.827 29.3755C174.165 29.48 174.374 29.5326 174.661 29.5326C175.364 29.5326 175.703 29.4019 176.068 28.698L176.197 28.3856L171.43 17.3351C171.326 17.0744 171.222 16.6839 171.222 16.4232C171.222 15.3024 172.082 14.5211 173.176 14.5211C174.165 14.5211 174.738 15.0679 175.077 16.0054L178.1 24.1373L181.017 16.0316C181.33 15.1988 181.902 14.5211 182.919 14.5211C183.935 14.5211 184.794 15.3024 184.794 16.345C184.794 16.6585 184.69 17.1009 184.612 17.2834L179.74 28.985C178.568 31.8252 177.396 32.8943 175.025 32.8943C174.139 32.8943 173.514 32.7645 172.863 32.5291Z" fill="white"/>
</mask>
<g mask="url(#mask16_1_2371)">
<mask id="mask17_1_2371" style="mask-type:luminance" maskUnits="userSpaceOnUse" x="0" y="0" width="185" height="44">
<path d="M0 43.2906H185V-2.67029e-05H0V43.2906Z" fill="white"/>
</mask>
<g mask="url(#mask17_1_2371)">
<path d="M166.709 37.4034H189.306V10.0114H166.709V37.4034Z" fill="#4B4B4B"/>
</g>
</g>
<mask id="mask18_1_2371" style="mask-type:luminance" maskUnits="userSpaceOnUse" x="0" y="0" width="45" height="44">
<path d="M44.0369 21.6457C44.0369 33.5996 34.35 43.291 22.3995 43.291C10.45 43.291 0.761963 33.5996 0.761963 21.6457C0.761963 9.69091 10.45 0.000339508 22.3995 0.000339508C34.35 0.000339508 44.0369 9.69091 44.0369 21.6457Z" fill="white"/>
</mask>
<g mask="url(#mask18_1_2371)">
<mask id="mask19_1_2371" style="mask-type:luminance" maskUnits="userSpaceOnUse" x="0" y="0" width="185" height="44">
<path d="M0 43.2909H185V0.000217438H0V43.2909Z" fill="white"/>
</mask>
<g mask="url(#mask19_1_2371)">
<path d="M0 43.2909H48.549V-4.50923H0V43.2909Z" fill="#17C399"/>
</g>
</g>
<mask id="mask20_1_2371" style="mask-type:luminance" maskUnits="userSpaceOnUse" x="9" y="8" width="26" height="27">
<path d="M25.2274 26.319C25.3554 27.0276 26.0214 27.5132 26.7411 27.5132H29.0083L30.3225 27.3288C28.2199 30.4146 24.5689 31.8347 20.5772 31.208C17.3279 30.698 14.5367 28.4986 13.3588 25.4269C10.6851 18.4542 15.7756 11.797 22.4089 11.797C25.8662 11.797 28.8987 13.82 30.6357 16.2662C31.1366 16.9716 32.013 17.1753 32.679 16.7131C33.3113 16.2747 33.4957 15.4419 33.1156 14.7867C30.711 11.0318 26.3902 8.62908 21.5311 8.95475C15.2045 9.37909 10.085 14.5581 9.72082 20.8907C9.29848 28.2596 15.1414 34.276 22.4089 34.276C26.2264 34.276 29.6442 32.6131 31.9726 29.9225L31.697 31.4659V32.8606C31.697 33.5797 32.1815 34.2469 32.8899 34.3748C33.8203 34.5423 34.6294 33.8317 34.6294 32.9321V24.5789H26.6687C25.7693 24.5789 25.0589 25.3892 25.2274 26.319Z" fill="white"/>
</mask>
<g mask="url(#mask20_1_2371)">
<mask id="mask21_1_2371" style="mask-type:luminance" maskUnits="userSpaceOnUse" x="0" y="0" width="185" height="44">
<path d="M6.10352e-05 43.2909H185V0.000217438H6.10352e-05V43.2909Z" fill="white"/>
</mask>
<g mask="url(#mask21_1_2371)">
<path d="M5.18713 38.9088H39.1416V4.41579H5.18713V38.9088Z" fill="white"/>
</g>
</g>
</g>
<defs>
<clipPath id="clip0_1_2371">
<rect width="185" height="43.2907" fill="white"/>
</clipPath>
</defs>
</svg>
