<svg width="192" height="32" viewBox="0 0 192 32" fill="none" xmlns="http://www.w3.org/2000/svg">
<g clip-path="url(#clip0_1_9110)">
<path d="M31.0979 15.7794C31.0979 19.111 30.2203 21.9884 28.4952 24.4417C27.0699 26.491 25.1682 28.1628 22.9538 29.313C20.7395 30.4633 18.2789 31.0575 15.784 31.0445C11.3351 31.0445 7.64285 29.4393 4.73745 26.259C1.92284 23.3211 0.500401 19.6562 0.500401 15.2039C0.485603 13.1967 0.880631 11.2077 1.66126 9.35881C2.44189 7.50989 3.59167 5.84003 5.04009 4.45163C6.45421 3.01019 8.14684 1.87204 10.0148 1.10658C11.8828 0.341112 13.8869 -0.0356369 15.9051 -0.000704896C22.2909 -0.000704896 27.8294 3.93674 30.2203 10.3275H21.9278C20.0816 8.38908 18.1447 7.38957 15.8748 7.38957C13.8088 7.40542 11.832 8.2338 10.371 9.69584C8.91013 11.1579 8.08239 13.1363 8.06656 15.2039C8.06656 19.9894 11.7286 23.5331 15.8748 23.5331C18.6894 23.5331 21.0803 22.1398 22.5936 19.5351H13.9984V13.538H31.0374C31.0071 14.477 31.0979 15.2645 31.0979 15.7794Z" fill="#1D1E25"/>
<path d="M32.9434 30.6511V0.787109H42.8096C45.9571 0.787109 48.3481 0.999126 50.406 2.39237C53.0088 4.23994 54.401 7.05673 54.401 10.7216C54.401 15.5071 51.9193 19.2022 47.6822 20.3835L54.9457 30.5905H45.9571L40.2069 20.9589V30.6208H32.9434V30.6511ZM41.599 14.5984C45.2005 14.5984 47.0164 13.5989 47.0164 10.9942C47.0164 8.51056 45.5032 7.51105 42.2346 7.51105H40.1766V14.5682L41.599 14.5984Z" fill="#1D1E25"/>
<path d="M60.0615 4.60319C62.9971 1.66525 66.6592 0.272003 70.9265 0.272003C72.9106 0.255323 74.8776 0.641253 76.7086 1.40649C78.5396 2.17173 80.1966 3.3004 81.5796 4.72434C83.0525 6.1259 84.2251 7.81255 85.0264 9.68178C85.8276 11.551 86.2406 13.5638 86.2404 15.5977C86.2404 19.8381 84.7271 23.7452 81.9125 26.5317C80.5038 28.0116 78.8084 29.1884 76.9299 29.9904C75.0514 30.7924 73.0293 31.2026 70.987 31.1961C66.5381 31.1961 62.8458 29.5908 59.9404 26.5317C57.1258 23.5938 55.7034 19.9289 55.7034 15.4766C55.5218 11.3271 57.1258 7.54113 60.0615 4.60319ZM70.9265 23.8058C75.1635 23.8058 78.7347 20.3227 78.7347 15.4766C78.7347 13.4001 77.9105 11.4086 76.4433 9.94033C74.9761 8.47202 72.9862 7.64714 70.9113 7.64714C68.8364 7.64714 66.8465 8.47202 65.3794 9.94033C63.9122 11.4086 63.0879 13.4001 63.0879 15.4766C62.9971 20.2621 66.7802 23.8058 70.9265 23.8058Z" fill="#1D1E25"/>
<path d="M95.4412 0.787109V19.1114C95.4412 22.443 96.5005 24.23 98.9216 24.23C101.524 24.23 102.705 22.6248 102.705 19.1114V0.787109H109.968V19.4445C109.968 26.7137 105.519 31.0448 98.9216 31.0448C92.2029 31.0448 88.0566 26.9257 88.0566 19.4445V0.787109H95.4412Z" fill="#1D1E25"/>
<path d="M112.146 30.6511V0.787109H122.013C125.16 0.787109 127.551 0.999126 129.609 2.39237C132.212 4.23994 133.604 7.05673 133.604 10.7216C133.604 14.659 131.879 17.7787 128.822 19.6565C126.976 20.7166 124.585 20.9892 121.438 20.9892H119.38V30.6511H112.146ZM120.802 14.5984C124.404 14.5984 126.22 13.5989 126.22 10.9942C126.22 8.51056 124.706 7.51105 121.438 7.51105H119.501V14.5682L120.802 14.5984Z" fill="#1D1E25"/>
<path d="M139.143 4.60319C142.079 1.66525 145.741 0.272003 150.008 0.272003C151.993 0.255323 153.96 0.641253 155.791 1.40649C157.622 2.17173 159.279 3.3004 160.662 4.72434C162.134 6.1259 163.307 7.81255 164.108 9.68178C164.91 11.551 165.323 13.5638 165.322 15.5977C165.322 19.8381 163.809 23.7452 160.995 26.5317C159.586 28.0116 157.89 29.1884 156.012 29.9904C154.133 30.7924 152.111 31.2026 150.069 31.1961C145.62 31.1961 141.928 29.5908 139.022 26.5317C136.208 23.5938 134.785 19.9289 134.785 15.4766C134.604 11.3271 136.208 7.54113 139.143 4.60319ZM149.978 23.8058C154.215 23.8058 157.787 20.3227 157.787 15.4766C157.787 13.4001 156.962 11.4086 155.495 9.94033C154.028 8.47202 152.038 7.64714 149.963 7.64714C147.888 7.64714 145.898 8.47202 144.431 9.94033C142.964 11.4086 142.14 13.4001 142.14 15.4766C142.049 20.2621 145.862 23.8058 149.978 23.8058Z" fill="#1D1E25"/>
<path d="M166.713 30.6511V0.787109H173.311L184.236 17.3849V0.787109H191.5V30.6511H185.114L174.067 14.0533V30.6511H166.713Z" fill="#1D1E25"/>
</g>
<defs>
<clipPath id="clip0_1_9110">
<rect width="191" height="31.1967" fill="white" transform="translate(0.5)"/>
</clipPath>
</defs>
</svg>
