<svg width="164" height="35" viewBox="0 0 164 35" fill="none" xmlns="http://www.w3.org/2000/svg">
<g clip-path="url(#clip0_1_8972)">
<path d="M57.8893 20.1586L56.9118 22.926H56.8303C56.6674 22.302 56.3687 21.3524 55.88 20.2128L50.6396 7.0539H45.5078V28.0268H48.9019V15.0849C48.9019 14.271 48.9019 13.3485 48.8747 12.2089C48.8475 11.6392 48.7932 11.2051 48.7661 10.8795H48.8475C49.0105 11.6934 49.2005 12.2903 49.3363 12.6702L55.6356 27.9725H58.025L64.2701 12.5345C64.4058 12.1818 64.5416 11.4764 64.6773 10.8795H64.7588C64.6773 12.426 64.623 13.8097 64.5959 14.6508V27.9454H68.2071V6.99964H63.2654L57.8893 20.1586ZM71.6283 12.9144H75.1581V27.9454H71.6283V12.9144ZM73.4204 6.56553C72.823 6.56553 72.3343 6.78258 71.927 7.16243C71.5197 7.54227 71.3025 8.03064 71.3025 8.62754C71.3025 9.19731 71.5197 9.68568 71.927 10.0655C72.3343 10.4454 72.823 10.6353 73.4204 10.6353C74.0177 10.6353 74.5336 10.4182 74.9138 10.0655C75.3211 9.68568 75.5383 9.19731 75.5383 8.62754C75.5383 8.05778 75.3211 7.5694 74.9138 7.16243C74.5608 6.78258 74.0449 6.56553 73.4204 6.56553ZM87.6754 12.7787C87.0237 12.643 86.3449 12.5617 85.6932 12.5617C84.0913 12.5617 82.625 12.9144 81.4032 13.6198C80.1813 14.3252 79.2038 15.302 78.5793 16.5229C77.9277 17.771 77.6018 19.2089 77.6018 20.864C77.6018 22.302 77.9277 23.5772 78.5522 24.7438C79.1767 25.8834 80.0456 26.8058 81.2131 27.4299C82.3264 28.0539 83.6297 28.3795 85.0959 28.3795C86.7793 28.3795 88.2184 28.0268 89.3588 27.3756L89.386 27.3485V24.0927L89.2502 24.2012C88.7343 24.581 88.1369 24.9066 87.5396 25.0965C86.9151 25.3136 86.3449 25.4221 85.8562 25.4221C84.4442 25.4221 83.331 25.0151 82.5436 24.1198C81.729 23.2516 81.3217 22.0578 81.3217 20.5655C81.3217 19.019 81.729 17.7981 82.5707 16.9027C83.4124 16.0074 84.5257 15.5461 85.8833 15.5461C87.0237 15.5461 88.1913 15.926 89.2502 16.6857L89.386 16.7942V13.3485L89.3588 13.3213C88.8972 13.1314 88.3813 12.9144 87.6754 12.7787ZM99.3237 12.6702C98.4548 12.6702 97.6403 12.9415 96.9343 13.5113C96.3369 13.9996 95.9297 14.7051 95.5767 15.5461H95.5495V12.9144H92.0197V27.9454H95.5495V20.2671C95.5495 18.9648 95.8211 17.8795 96.4184 17.0927C97.0158 16.2787 97.776 15.8717 98.6992 15.8717C99.025 15.8717 99.3508 15.9531 99.7581 16.0074C100.138 16.1159 100.41 16.2244 100.6 16.3601L100.736 16.4686V12.9415L100.654 12.9144C100.41 12.7516 99.921 12.6702 99.3237 12.6702ZM108.936 12.5888C106.465 12.5888 104.483 13.3213 103.098 14.7593C101.686 16.1973 101.007 18.1779 101.007 20.6741C101.007 23.0074 101.713 24.9066 103.071 26.2903C104.428 27.6469 106.275 28.3524 108.583 28.3524C110.999 28.3524 112.927 27.6198 114.312 26.1547C115.724 24.6896 116.403 22.7361 116.403 20.3213C116.403 17.9337 115.751 16.0345 114.42 14.6508C113.144 13.2671 111.271 12.5888 108.936 12.5888ZM111.759 24.1469C111.108 24.988 110.076 25.395 108.8 25.395C107.524 25.395 106.492 24.988 105.759 24.0927C105.026 23.2516 104.673 22.0306 104.673 20.4841C104.673 18.8834 105.053 17.6624 105.759 16.7942C106.492 15.926 107.497 15.4919 108.773 15.4919C110.022 15.4919 110.999 15.8989 111.705 16.7399C112.411 17.581 112.791 18.802 112.791 20.4027C112.737 22.0306 112.438 23.3058 111.759 24.1469ZM124.277 19.1547C123.163 18.6934 122.457 18.3407 122.132 18.0423C121.86 17.771 121.724 17.3911 121.724 16.9027C121.724 16.4958 121.887 16.0888 122.295 15.8175C122.702 15.5461 123.163 15.4105 123.842 15.4105C124.44 15.4105 125.064 15.519 125.661 15.6818C126.259 15.8446 126.802 16.0888 127.236 16.4144L127.372 16.5229V13.2128L127.291 13.1857C126.883 13.0229 126.34 12.8601 125.689 12.7244C125.037 12.6159 124.44 12.5617 123.951 12.5617C122.267 12.5617 120.883 12.9686 119.797 13.864C118.71 14.7051 118.195 15.8446 118.195 17.1741C118.195 17.8795 118.303 18.5035 118.548 19.019C118.792 19.5345 119.145 20.0229 119.634 20.4299C120.122 20.8097 120.828 21.2438 121.806 21.6508C122.62 22.0035 123.245 22.2748 123.625 22.4919C124.005 22.7089 124.25 22.9531 124.44 23.143C124.575 23.3601 124.657 23.6314 124.657 23.9841C124.657 24.988 123.897 25.4764 122.349 25.4764C121.752 25.4764 121.127 25.3679 120.394 25.1237C119.661 24.8795 118.982 24.5268 118.412 24.1198L118.276 24.0113V27.457L118.357 27.4841C118.873 27.7283 119.498 27.8911 120.258 28.081C121.018 28.2167 121.697 28.3252 122.295 28.3252C124.114 28.3252 125.607 27.9182 126.666 27.0229C127.752 26.1547 128.322 25.0423 128.322 23.6043C128.322 22.6004 128.051 21.7051 127.453 21.0268C126.666 20.3756 125.689 19.6973 124.277 19.1547ZM137.636 12.5888C135.165 12.5888 133.183 13.3213 131.798 14.7593C130.413 16.1973 129.707 18.1779 129.707 20.6741C129.707 23.0074 130.413 24.9066 131.771 26.2903C133.128 27.6469 134.975 28.3524 137.283 28.3524C139.699 28.3524 141.627 27.6198 143.012 26.1547C144.424 24.6896 145.103 22.7361 145.103 20.3213C145.103 17.9337 144.451 16.0345 143.12 14.6508C141.844 13.2671 139.971 12.5888 137.636 12.5888ZM140.432 24.1469C139.781 24.988 138.749 25.395 137.473 25.395C136.169 25.395 135.165 24.988 134.432 24.0927C133.699 23.2516 133.346 22.0306 133.346 20.4841C133.346 18.8834 133.726 17.6624 134.432 16.7942C135.165 15.926 136.169 15.4919 137.446 15.4919C138.667 15.4919 139.672 15.8989 140.378 16.7399C141.084 17.581 141.464 18.802 141.464 20.4027C141.464 22.0306 141.111 23.3058 140.432 24.1469ZM163.973 15.8175V12.9144H160.416V8.46475L160.308 8.49188L156.941 9.49576L156.859 9.52289V12.9144H151.538V11.0151C151.538 10.1469 151.755 9.46863 152.135 9.03452C152.515 8.60041 153.085 8.38336 153.791 8.38336C154.28 8.38336 154.796 8.49188 155.366 8.73607L155.502 8.81747V5.75157L155.42 5.72444C154.932 5.56165 154.28 5.45312 153.438 5.45312C152.379 5.45312 151.456 5.69731 150.614 6.10429C149.773 6.56553 149.148 7.18956 148.687 8.03064C148.225 8.8446 147.981 9.76708 147.981 10.8252V12.9144H145.51V15.7903H147.981V27.9454H151.538V15.8175H156.859V23.55C156.859 26.7244 158.353 28.3252 161.34 28.3252C161.828 28.3252 162.344 28.2438 162.833 28.1624C163.349 28.0539 163.729 27.9182 163.946 27.8097L163.973 27.7826V24.8795L163.838 24.988C163.62 25.1237 163.43 25.2322 163.104 25.3136C162.833 25.395 162.589 25.4221 162.399 25.4221C161.693 25.4221 161.204 25.2593 160.851 24.8524C160.525 24.4725 160.362 23.8485 160.362 22.926V15.8175H163.973Z" fill="#737373"/>
<path d="M0 0H16.6444V16.6318H0V0Z" fill="#F25022"/>
<path d="M18.3828 0H35.0272V16.6318H18.3828V0Z" fill="#7FBA00"/>
<path d="M0 18.3682H16.6444V34.9999H0V18.3682Z" fill="#00A4EF"/>
<path d="M18.3828 18.3682H35.0272V34.9999H18.3828V18.3682Z" fill="#FFB900"/>
</g>
<defs>
<clipPath id="clip0_1_8972">
<rect width="164" height="35" fill="white"/>
</clipPath>
</defs>
</svg>
