<svg width="120" height="56" viewBox="0 0 120 56" fill="none" xmlns="http://www.w3.org/2000/svg">
<path d="M58.4099 30.5323L62.3326 32.5441C61.5124 33.6035 60.4842 34.4544 59.2479 35.0968C58.0117 35.7392 56.6625 36.0604 55.2004 36.0604C53.56 36.0604 52.0622 35.6603 50.7071 34.8601C49.3639 34.0599 48.2881 32.9892 47.4798 31.6481C46.6834 30.2957 46.2852 28.8024 46.2852 27.1682C46.2852 25.9285 46.517 24.7733 46.9805 23.7026C47.4441 22.6207 48.0801 21.674 48.8884 20.8625C49.7086 20.0398 50.6596 19.3974 51.7413 18.9353C52.823 18.4732 53.976 18.2422 55.2004 18.2422C56.6625 18.2422 58.0117 18.5634 59.2479 19.2058C60.4842 19.8482 61.5124 20.7104 62.3326 21.7923L58.4099 23.7871C57.9938 23.3363 57.5005 22.9869 56.93 22.739C56.3713 22.4911 55.7947 22.3671 55.2004 22.3671C54.3445 22.3671 53.5719 22.5925 52.8824 23.0433C52.193 23.4828 51.6462 24.0689 51.242 24.8014C50.8379 25.5227 50.6358 26.3116 50.6358 27.1682C50.6358 28.0134 50.8379 28.8024 51.242 29.5349C51.6462 30.2562 52.193 30.8366 52.8824 31.2762C53.5719 31.7157 54.3445 31.9355 55.2004 31.9355C55.8185 31.9355 56.4069 31.8115 56.9656 31.5636C57.5243 31.3043 58.0057 30.9606 58.4099 30.5323Z" fill="white"/>
<path d="M72.8219 36.0604C71.1815 36.0604 69.6838 35.6603 68.3286 34.8601C66.9854 34.0599 65.9096 32.9892 65.1013 31.6481C64.3049 30.2957 63.9067 28.8024 63.9067 27.1682C63.9067 25.9285 64.1385 24.7733 64.6021 23.7026C65.0657 22.6207 65.7016 21.674 66.5099 20.8625C67.3301 20.0398 68.2811 19.3974 69.3628 18.9353C70.4445 18.4732 71.5976 18.2422 72.8219 18.2422C74.4623 18.2422 75.9542 18.6423 77.2974 19.4425C78.6525 20.2426 79.7283 21.319 80.5247 22.6714C81.333 24.0238 81.7372 25.5227 81.7372 27.1682C81.7372 28.3966 81.5054 29.5462 81.0418 30.6169C80.5782 31.6875 79.9363 32.6342 79.1161 33.457C78.3078 34.2684 77.3628 34.9052 76.281 35.3673C75.2112 35.8293 74.0582 36.0604 72.8219 36.0604ZM72.8219 31.9355C73.6897 31.9355 74.4683 31.7157 75.1577 31.2762C75.8472 30.8366 76.388 30.2562 76.7803 29.5349C77.1845 28.8136 77.3865 28.0247 77.3865 27.1682C77.3865 26.2891 77.1785 25.4889 76.7625 24.7676C76.3583 24.0351 75.8056 23.4547 75.1042 23.0264C74.4148 22.5868 73.654 22.3671 72.8219 22.3671C71.9661 22.3671 71.1934 22.5868 70.504 23.0264C69.8145 23.4659 69.2677 24.052 68.8636 24.7845C68.4594 25.5171 68.2573 26.3116 68.2573 27.1682C68.2573 28.0585 68.4653 28.8643 68.8814 29.5856C69.2974 30.3069 69.8502 30.8817 70.5396 31.31C71.241 31.727 72.0017 31.9355 72.8219 31.9355Z" fill="white"/>
<path d="M95.638 30.5323L99.5607 32.5441C98.7405 33.6035 97.7123 34.4544 96.476 35.0968C95.2398 35.7392 93.8906 36.0604 92.4285 36.0604C90.7881 36.0604 89.2903 35.6603 87.9352 34.8601C86.592 34.0599 85.5162 32.9892 84.7079 31.6481C83.9115 30.2957 83.5133 28.8024 83.5133 27.1682C83.5133 25.9285 83.7451 24.7733 84.2086 23.7026C84.6722 22.6207 85.3082 21.674 86.1165 20.8625C86.9367 20.0398 87.8877 19.3974 88.9694 18.9353C90.0511 18.4732 91.2041 18.2422 92.4285 18.2422C93.8906 18.2422 95.2398 18.5634 96.476 19.2058C97.7123 19.8482 98.7405 20.7104 99.5607 21.7923L95.638 23.7871C95.2219 23.3363 94.7286 22.9869 94.1581 22.739C93.5994 22.4911 93.0228 22.3671 92.4285 22.3671C91.5726 22.3671 90.8 22.5925 90.1105 23.0433C89.4211 23.4828 88.8743 24.0689 88.4701 24.8014C88.066 25.5227 87.8639 26.3116 87.8639 27.1682C87.8639 28.0134 88.066 28.8024 88.4701 29.5349C88.8743 30.2562 89.4211 30.8366 90.1105 31.2762C90.8 31.7157 91.5726 31.9355 92.4285 31.9355C93.0466 31.9355 93.635 31.8115 94.1937 31.5636C94.7524 31.3043 95.2338 30.9606 95.638 30.5323Z" fill="white"/>
<path d="M115.649 18.7155H119.999V35.6208H115.649L115.453 33.5246C114.965 34.2797 114.317 34.8939 113.509 35.3673C112.713 35.8293 111.768 36.0604 110.674 36.0604C109.355 36.0604 108.118 35.8237 106.965 35.3503C105.812 34.877 104.796 34.2233 103.916 33.3893C103.049 32.5553 102.365 31.5917 101.866 30.4985C101.378 29.4053 101.135 28.2332 101.135 26.9822C101.135 25.7763 101.367 24.6437 101.83 23.5843C102.306 22.5249 102.965 21.5951 103.809 20.7949C104.653 19.9947 105.628 19.3692 106.734 18.9184C107.839 18.4676 109.028 18.2422 110.3 18.2422C111.476 18.2422 112.528 18.4901 113.456 18.986C114.395 19.4819 115.191 20.113 115.845 20.8794L115.649 18.7155ZM110.567 32.0876C111.494 32.0876 112.314 31.8679 113.028 31.4283C113.741 30.9888 114.3 30.3971 114.704 29.6533C115.108 28.8982 115.31 28.0698 115.31 27.1682C115.31 26.2553 115.108 25.4269 114.704 24.6831C114.3 23.928 113.735 23.3307 113.01 22.8911C112.297 22.4516 111.482 22.2318 110.567 22.2318C109.652 22.2318 108.814 22.4572 108.053 22.908C107.304 23.3476 106.704 23.9393 106.252 24.6831C105.812 25.4269 105.592 26.2553 105.592 27.1682C105.592 28.0811 105.818 28.9094 106.27 29.6533C106.722 30.3971 107.322 30.9888 108.071 31.4283C108.832 31.8679 109.664 32.0876 110.567 32.0876Z" fill="white"/>
<ellipse cx="18" cy="25.8787" rx="18" ry="17.8182" fill="white"/>
<path d="M23.5279 30.0716L27.4294 32.0229C26.4785 33.2466 25.2689 34.2255 23.8006 34.9596C22.3463 35.6938 20.7661 36.0609 19.0601 36.0609C17.1303 36.0609 15.3684 35.6037 13.7742 34.6892C12.1941 33.7747 10.9285 32.551 9.97764 31.0183C9.04072 29.4727 8.57227 27.766 8.57227 25.8984C8.57227 24.4816 8.84495 23.1614 9.39032 21.9377C9.93569 20.7012 10.6838 19.6193 11.6347 18.6919C12.5996 17.7517 13.7183 17.0175 14.9908 16.4894C16.2634 15.9613 17.6198 15.6973 19.0601 15.6973C20.7661 15.6973 22.3463 16.0644 23.8006 16.7985C25.2689 17.5327 26.4785 18.518 27.4294 19.7545L23.5279 21.7059C22.9406 21.0619 22.2554 20.5724 21.4723 20.2375C20.6892 19.8898 19.8852 19.7159 19.0601 19.7159C17.9134 19.7159 16.8716 20.0057 15.9347 20.5853C15.0118 21.152 14.2777 21.9055 13.7323 22.8458C13.2009 23.7732 12.9352 24.7907 12.9352 25.8984C12.9352 26.9932 13.2079 28.0108 13.7533 28.951C14.2986 29.8784 15.0328 30.6254 15.9557 31.1922C16.8926 31.7589 17.9274 32.0423 19.0601 32.0423C19.9271 32.0423 20.7521 31.8619 21.5352 31.5013C22.3183 31.1407 22.9826 30.6641 23.5279 30.0716Z" fill="#1F61FE"/>
</svg>
