<svg width="22" height="25" viewBox="0 0 22 25" fill="none" xmlns="http://www.w3.org/2000/svg">
<path d="M17.4483 17.4412L22 19.741C20.8906 21.1831 19.4794 22.3368 17.7664 23.2021C16.0697 24.0674 14.2262 24.5 12.2358 24.5C9.98443 24.5 7.92881 23.9611 6.06897 22.8833C4.22544 21.8055 2.74898 20.3634 1.6396 18.5569C0.546533 16.7353 0 14.7239 0 12.5228C0 10.8529 0.318131 9.29696 0.954394 7.85484C1.59066 6.39753 2.46348 5.12239 3.57286 4.02941C4.69855 2.92125 6.00371 2.05598 7.48832 1.43359C8.97293 0.811195 10.5554 0.5 12.2358 0.5C14.2262 0.5 16.0697 0.932637 17.7664 1.79791C19.4794 2.66319 20.8906 3.82448 22 5.28178L17.4483 7.58159C16.7631 6.82258 15.9637 6.24573 15.0501 5.85104C14.1364 5.44118 13.1984 5.23624 12.2358 5.23624C10.898 5.23624 9.68261 5.5778 8.58954 6.26091C7.51279 6.92884 6.65628 7.81689 6.02002 8.92505C5.40007 10.018 5.0901 11.2173 5.0901 12.5228C5.0901 13.8131 5.40823 15.0123 6.04449 16.1205C6.68076 17.2135 7.53726 18.0939 8.61402 18.7619C9.70708 19.4298 10.9143 19.7638 12.2358 19.7638C13.2473 19.7638 14.2099 19.5512 15.1235 19.1262C16.0371 18.7011 16.812 18.1395 17.4483 17.4412Z" fill="#0C54FE"/>
</svg>
