<svg width="169" height="24" viewBox="0 0 169 24" fill="none" xmlns="http://www.w3.org/2000/svg">
<path d="M10.8587 4.71248C11.218 3.60691 12.782 3.60691 13.1413 4.71248L14.4248 8.66264C14.5854 9.15706 15.0461 9.49182 15.566 9.49182H19.7195C20.8819 9.49182 21.3653 10.9794 20.4248 11.6626L17.0646 14.104C16.644 14.4095 16.468 14.9512 16.6287 15.4456L17.9122 19.3958C18.2714 20.5013 17.006 21.4207 16.0655 20.7374L12.7053 18.2961C12.2848 17.9905 11.7152 17.9905 11.2947 18.2961L7.93445 20.7374C6.994 21.4207 5.72862 20.5013 6.08784 19.3958L7.37133 15.4456C7.53198 14.9512 7.35599 14.4095 6.9354 14.104L3.5752 11.6626C2.63474 10.9794 3.11807 9.49182 4.28054 9.49182H8.43398C8.95385 9.49182 9.4146 9.15706 9.57525 8.66264L10.8587 4.71248Z" fill="#FFC046"/>
<path d="M38.8587 4.71248C39.218 3.60691 40.7821 3.60691 41.1413 4.71248L42.4248 8.66264C42.5854 9.15706 43.0462 9.49182 43.566 9.49182H47.7195C48.8819 9.49182 49.3653 10.9794 48.4248 11.6626L45.0646 14.104C44.644 14.4095 44.468 14.9512 44.6287 15.4456L45.9122 19.3958C46.2714 20.5013 45.006 21.4207 44.0656 20.7374L40.7053 18.2961C40.2848 17.9905 39.7152 17.9905 39.2947 18.2961L35.9345 20.7374C34.994 21.4207 33.7286 20.5013 34.0878 19.3958L35.3713 15.4456C35.532 14.9512 35.356 14.4095 34.9354 14.104L31.5752 11.6626C30.6347 10.9794 31.1181 9.49182 32.2805 9.49182H36.434C36.9539 9.49182 37.4146 9.15706 37.5753 8.66264L38.8587 4.71248Z" fill="#FFC046"/>
<path d="M66.8587 4.71248C67.218 3.60691 68.7821 3.60691 69.1413 4.71248L70.4248 8.66264C70.5854 9.15706 71.0462 9.49182 71.566 9.49182H75.7195C76.8819 9.49182 77.3653 10.9794 76.4248 11.6626L73.0646 14.104C72.644 14.4095 72.468 14.9512 72.6287 15.4456L73.9122 19.3958C74.2714 20.5013 73.006 21.4207 72.0656 20.7374L68.7053 18.2961C68.2848 17.9905 67.7152 17.9905 67.2947 18.2961L63.9345 20.7374C62.994 21.4207 61.7286 20.5013 62.0878 19.3958L63.3713 15.4456C63.532 14.9512 63.356 14.4095 62.9354 14.104L59.5752 11.6626C58.6347 10.9794 59.1181 9.49182 60.2805 9.49182H64.434C64.9539 9.49182 65.4146 9.15706 65.5753 8.66264L66.8587 4.71248Z" fill="#FFC046"/>
<path d="M94.8587 4.71248C95.218 3.60691 96.7821 3.60691 97.1413 4.71248L98.4248 8.66264C98.5854 9.15706 99.0462 9.49182 99.566 9.49182H103.719C104.882 9.49182 105.365 10.9794 104.425 11.6626L101.065 14.104C100.644 14.4095 100.468 14.9512 100.629 15.4456L101.912 19.3958C102.271 20.5013 101.006 21.4207 100.066 20.7374L96.7053 18.2961C96.2848 17.9905 95.7152 17.9905 95.2947 18.2961L91.9345 20.7374C90.994 21.4207 89.7286 20.5013 90.0878 19.3958L91.3713 15.4456C91.532 14.9512 91.356 14.4095 90.9354 14.104L87.5752 11.6626C86.6347 10.9794 87.1181 9.49182 88.2805 9.49182H92.434C92.9539 9.49182 93.4146 9.15706 93.5753 8.66264L94.8587 4.71248Z" fill="#FFC046"/>
<path d="M122.859 4.71248C123.218 3.60691 124.782 3.60691 125.141 4.71248L126.425 8.66264C126.585 9.15706 127.046 9.49182 127.566 9.49182H131.719C132.882 9.49182 133.365 10.9794 132.425 11.6626L129.065 14.104C128.644 14.4095 128.468 14.9512 128.629 15.4456L129.912 19.3958C130.271 20.5013 129.006 21.4207 128.066 20.7374L124.705 18.2961C124.285 17.9905 123.715 17.9905 123.295 18.2961L119.934 20.7374C118.994 21.4207 117.729 20.5013 118.088 19.3958L119.371 15.4456C119.532 14.9512 119.356 14.4095 118.935 14.104L115.575 11.6626C114.635 10.9794 115.118 9.49182 116.281 9.49182H120.434C120.954 9.49182 121.415 9.15706 121.575 8.66264L122.859 4.71248Z" fill="#FFC046"/>
<path d="M149.96 18.1591C149.248 18.1591 148.608 18.0227 148.04 17.75C147.475 17.4735 147.025 17.0947 146.688 16.6136C146.35 16.1326 146.17 15.5833 146.148 14.9659H147.852C147.894 15.4659 148.116 15.8769 148.517 16.1989C148.919 16.5208 149.4 16.6818 149.96 16.6818C150.407 16.6818 150.803 16.5795 151.148 16.375C151.496 16.1667 151.769 15.8807 151.966 15.517C152.167 15.1534 152.267 14.7386 152.267 14.2727C152.267 13.7992 152.165 13.3769 151.96 13.0057C151.756 12.6345 151.473 12.3428 151.114 12.1307C150.758 11.9186 150.348 11.8106 149.886 11.8068C149.534 11.8068 149.18 11.8674 148.824 11.9886C148.468 12.1098 148.18 12.2689 147.96 12.4659L146.352 12.2273L147.006 6.36364H153.403V7.86932H148.466L148.097 11.125H148.165C148.392 10.9053 148.693 10.7216 149.068 10.5739C149.447 10.4261 149.852 10.3523 150.284 10.3523C150.992 10.3523 151.623 10.5208 152.176 10.858C152.733 11.1951 153.17 11.6553 153.489 12.2386C153.811 12.8182 153.97 13.4848 153.966 14.2386C153.97 14.9924 153.799 15.6648 153.455 16.2557C153.114 16.8466 152.64 17.3125 152.034 17.6534C151.432 17.9905 150.741 18.1591 149.96 18.1591ZM156.761 18.108C156.451 18.108 156.184 17.9981 155.96 17.7784C155.737 17.5549 155.625 17.286 155.625 16.9716C155.625 16.661 155.737 16.3958 155.96 16.1761C156.184 15.9527 156.451 15.8409 156.761 15.8409C157.072 15.8409 157.339 15.9527 157.562 16.1761C157.786 16.3958 157.898 16.661 157.898 16.9716C157.898 17.1799 157.845 17.3712 157.739 17.5455C157.636 17.7159 157.5 17.8523 157.33 17.9545C157.159 18.0568 156.97 18.108 156.761 18.108ZM163.78 18.1932C162.882 18.1894 162.115 17.9527 161.479 17.483C160.842 17.0133 160.356 16.3295 160.018 15.4318C159.681 14.5341 159.513 13.4527 159.513 12.1875C159.513 10.9261 159.681 9.84848 160.018 8.95455C160.359 8.06061 160.848 7.37879 161.484 6.90909C162.125 6.43939 162.89 6.20455 163.78 6.20455C164.67 6.20455 165.433 6.44129 166.07 6.91477C166.706 7.38447 167.193 8.06629 167.53 8.96023C167.871 9.85038 168.041 10.9261 168.041 12.1875C168.041 13.4564 167.873 14.5398 167.536 15.4375C167.198 16.3314 166.712 17.0152 166.075 17.4886C165.439 17.9583 164.674 18.1932 163.78 18.1932ZM163.78 16.6761C164.568 16.6761 165.183 16.2917 165.626 15.5227C166.073 14.7538 166.297 13.642 166.297 12.1875C166.297 11.2216 166.195 10.4053 165.99 9.73864C165.789 9.06818 165.5 8.56061 165.121 8.21591C164.746 7.86742 164.299 7.69318 163.78 7.69318C162.996 7.69318 162.38 8.07954 161.933 8.85227C161.486 9.625 161.261 10.7367 161.257 12.1875C161.257 13.1572 161.357 13.9773 161.558 14.6477C161.763 15.3144 162.053 15.8201 162.428 16.1648C162.803 16.5057 163.253 16.6761 163.78 16.6761Z" fill="#101010"/>
</svg>
