<svg width="137" height="46" viewBox="0 0 137 46" fill="none" xmlns="http://www.w3.org/2000/svg">
<path d="M58.3003 23.59C58.3003 29.975 53.2686 34.68 47.0935 34.68C40.9184 34.68 35.8867 29.975 35.8867 23.59C35.8867 17.16 40.9184 12.5 47.0935 12.5C53.2686 12.5 58.3003 17.16 58.3003 23.59ZM53.3945 23.59C53.3945 19.6 50.4782 16.87 47.0935 16.87C43.7088 16.87 40.7925 19.6 40.7925 23.59C40.7925 27.54 43.7088 30.31 47.0935 30.31C50.4782 30.31 53.3945 27.535 53.3945 23.59Z" fill="#EA4335"/>
<path d="M82.4761 23.59C82.4761 29.975 77.4444 34.68 71.2693 34.68C65.0942 34.68 60.0625 29.975 60.0625 23.59C60.0625 17.165 65.0942 12.5 71.2693 12.5C77.4444 12.5 82.4761 17.16 82.4761 23.59ZM77.5703 23.59C77.5703 19.6 74.654 16.87 71.2693 16.87C67.8846 16.87 64.9683 19.6 64.9683 23.59C64.9683 27.54 67.8846 30.31 71.2693 30.31C74.654 30.31 77.5703 27.535 77.5703 23.59Z" fill="#FBBC05"/>
<path d="M105.647 13.17V33.08C105.647 41.27 100.781 44.615 95.0293 44.615C89.6148 44.615 86.356 41.02 85.127 38.08L89.3982 36.315C90.1588 38.12 92.0224 40.25 95.0243 40.25C98.7061 40.25 100.988 37.995 100.988 33.75V32.155H100.817C99.7185 33.5 97.6031 34.675 94.9336 34.675C89.3478 34.675 84.2305 29.845 84.2305 23.63C84.2305 17.37 89.3478 12.5 94.9336 12.5C97.5981 12.5 99.7135 13.675 100.817 14.98H100.988V13.175H105.647V13.17ZM101.335 23.63C101.335 19.725 98.7112 16.87 95.3718 16.87C91.9871 16.87 89.1514 19.725 89.1514 23.63C89.1514 27.495 91.9871 30.31 95.3718 30.31C98.7112 30.31 101.335 27.495 101.335 23.63Z" fill="#4285F4"/>
<path d="M113.328 1.5V34H108.543V1.5H113.328Z" fill="#34A853"/>
<path d="M131.973 27.2401L135.781 29.7601C134.552 31.5651 131.59 34.6751 126.473 34.6751C120.126 34.6751 115.387 29.8051 115.387 23.5851C115.387 16.9901 120.167 12.4951 125.924 12.4951C131.721 12.4951 134.557 17.0751 135.483 19.5501L135.992 20.8101L121.058 26.9501C122.201 29.1751 123.979 30.3101 126.473 30.3101C128.971 30.3101 130.704 29.0901 131.973 27.2401ZM120.252 23.2501L130.235 19.1351C129.686 17.7501 128.034 16.7851 126.09 16.7851C123.597 16.7851 120.126 18.9701 120.252 23.2501Z" fill="#EA4335"/>
<path d="M17.7751 20.7054V16.0004H33.7466C33.9028 16.8204 33.9834 17.7904 33.9834 18.8404C33.9834 22.3704 33.0113 26.7353 29.8784 29.8454C26.8312 32.9953 22.9377 34.6754 17.7801 34.6754C8.22032 34.6754 0.181641 26.9454 0.181641 17.4554C0.181641 7.96535 8.22032 0.235352 17.7801 0.235352C23.0687 0.235352 26.8362 2.29535 29.6669 4.98035L26.3225 8.30035C24.2926 6.41035 21.5426 4.94035 17.7751 4.94035C10.7941 4.94035 5.33425 10.5254 5.33425 17.4554C5.33425 24.3854 10.7941 29.9704 17.7751 29.9704C22.3031 29.9704 24.8819 28.1653 26.534 26.5254C27.8738 25.1954 28.7552 23.2954 29.1027 20.7004L17.7751 20.7054Z" fill="#4285F4"/>
</svg>
