<svg width="100" height="34" viewBox="0 0 100 34" fill="none" xmlns="http://www.w3.org/2000/svg">
<path d="M42.5551 17.219C42.5551 21.8796 38.8823 25.3139 34.375 25.3139C29.8676 25.3139 26.1948 21.8796 26.1948 17.219C26.1948 12.5256 29.8676 9.12415 34.375 9.12415C38.8823 9.12415 42.5551 12.5256 42.5551 17.219ZM38.9742 17.219C38.9742 14.3066 36.8456 12.3139 34.375 12.3139C31.9044 12.3139 29.7757 14.3066 29.7757 17.219C29.7757 20.1022 31.9044 22.1241 34.375 22.1241C36.8456 22.1241 38.9742 20.0986 38.9742 17.219Z" fill="#EA4335"/>
<path d="M60.2021 17.219C60.2021 21.8796 56.5293 25.3139 52.0219 25.3139C47.5146 25.3139 43.8418 21.8796 43.8418 17.219C43.8418 12.5293 47.5146 9.12415 52.0219 9.12415C56.5293 9.12415 60.2021 12.5256 60.2021 17.219ZM56.6212 17.219C56.6212 14.3066 54.4925 12.3139 52.0219 12.3139C49.5514 12.3139 47.4227 14.3066 47.4227 17.219C47.4227 20.1022 49.5514 22.1241 52.0219 22.1241C54.4925 22.1241 56.6212 20.0986 56.6212 17.219Z" fill="#FBBC05"/>
<path d="M77.1139 9.6132V24.146C77.1139 30.1241 73.5625 32.5658 69.3639 32.5658C65.4117 32.5658 63.033 29.9417 62.136 27.7957L65.2536 26.5074C65.8088 27.8249 67.1691 29.3796 69.3603 29.3796C72.0478 29.3796 73.7132 27.7336 73.7132 24.6351V23.4709H73.5882C72.7867 24.4526 71.2426 25.3103 69.2941 25.3103C65.2169 25.3103 61.4816 21.7847 61.4816 17.2482C61.4816 12.6789 65.2169 9.12415 69.2941 9.12415C71.2389 9.12415 72.7831 9.98181 73.5882 10.9344H73.7132V9.61685H77.1139V9.6132ZM73.9669 17.2482C73.9669 14.3979 72.0514 12.3139 69.6139 12.3139C67.1433 12.3139 65.0735 14.3979 65.0735 17.2482C65.0735 20.0694 67.1433 22.1241 69.6139 22.1241C72.0514 22.1241 73.9669 20.0694 73.9669 17.2482Z" fill="#4285F4"/>
<path d="M82.7205 1.09485V24.8175H79.2279V1.09485H82.7205Z" fill="#34A853"/>
<path d="M96.331 19.8833L99.1104 21.7227C98.2133 23.0402 96.0516 25.3103 92.3163 25.3103C87.6839 25.3103 84.2244 21.7555 84.2244 17.2154C84.2244 12.4015 87.7133 9.12048 91.9155 9.12048C96.1472 9.12048 98.217 12.4635 98.8935 14.2701L99.2648 15.1898L88.3641 19.6716C89.1986 21.2957 90.4964 22.1241 92.3163 22.1241C94.1398 22.1241 95.4045 21.2336 96.331 19.8833ZM87.7758 16.9708L95.0626 13.9672C94.6619 12.9562 93.456 12.2519 92.0369 12.2519C90.217 12.2519 87.6839 13.8468 87.7758 16.9708Z" fill="#EA4335"/>
<path d="M12.9744 15.1131V11.6788H24.6324C24.7464 12.2773 24.8052 12.9854 24.8052 13.7518C24.8052 16.3284 24.0957 19.5146 21.8089 21.7846C19.5847 24.0839 16.7427 25.3102 12.978 25.3102C6.00009 25.3102 0.132446 19.6679 0.132446 12.7409C0.132446 5.81384 6.00009 0.171509 12.978 0.171509C16.8383 0.171509 19.5883 1.67516 21.6545 3.63501L19.2133 6.05837C17.7317 4.67881 15.7244 3.60581 12.9744 3.60581C7.87877 3.60581 3.89348 7.68246 3.89348 12.7409C3.89348 17.7992 7.87877 21.8759 12.9744 21.8759C16.2795 21.8759 18.1619 20.5584 19.3677 19.3613C20.3457 18.3905 20.9891 17.0036 21.2427 15.1095L12.9744 15.1131Z" fill="#4285F4"/>
</svg>
