<svg width="100" height="17" viewBox="0 0 100 17" fill="none" xmlns="http://www.w3.org/2000/svg">
<g clip-path="url(#clip0_1_3135)">
<path d="M16.0196 8.26163C16.0196 10.006 15.5601 11.5124 14.6569 12.7969C13.9107 13.8698 12.915 14.7451 11.7557 15.3473C10.5963 15.9496 9.30807 16.2607 8.00187 16.2539C5.6726 16.2539 3.73947 15.4134 2.21831 13.7484C0.744697 12.2102 -3.42655e-05 10.2914 -3.42655e-05 7.96034C-0.00778165 6.90948 0.199039 5.86811 0.607746 4.90009C1.01645 3.93207 1.61843 3.0578 2.37677 2.33089C3.11714 1.57621 4.00334 0.980318 4.98132 0.579551C5.95931 0.178784 7.00861 -0.0184669 8.06525 -0.000177961C11.4086 -0.000177961 14.3083 2.06131 15.5601 5.40727H11.2185C10.2519 4.39238 9.23781 3.86908 8.0494 3.86908C6.96773 3.87737 5.93272 4.31108 5.16784 5.07655C4.40296 5.84202 3.96959 6.87783 3.9613 7.96034C3.9613 10.4658 5.87859 12.3212 8.0494 12.3212C9.52302 12.3212 10.7748 11.5917 11.5671 10.228H7.06699V7.08817H15.9879C15.9721 7.57976 16.0196 7.99206 16.0196 8.26163Z" fill="#1D1E25"/>
<path d="M16.9862 16.0477V0.412109H22.1518C23.7997 0.412109 25.0515 0.523113 26.129 1.25256C27.4917 2.21988 28.2206 3.69463 28.2206 5.6134C28.2206 8.11891 26.9212 10.0535 24.7029 10.672L28.5058 16.016H23.7997L20.7891 10.9733V16.0319H16.9862V16.0477ZM21.518 7.64318C23.4036 7.64318 24.3543 7.11988 24.3543 5.75612C24.3543 4.4558 23.562 3.9325 21.8507 3.9325H20.7732V7.62732L21.518 7.64318Z" fill="#1D1E25"/>
<path d="M31.1837 2.41012C32.7207 0.871933 34.638 0.142483 36.8721 0.142483C37.911 0.13375 38.9408 0.335808 39.8994 0.736456C40.8581 1.1371 41.7256 1.72803 42.4497 2.47355C43.2208 3.20735 43.8348 4.09042 44.2543 5.06907C44.6738 6.04773 44.89 7.10153 44.8899 8.16643C44.8899 10.3865 44.0976 12.4321 42.624 13.891C41.8865 14.6658 40.9988 15.282 40.0153 15.7018C39.0318 16.1217 37.9731 16.3365 36.9038 16.3331C34.5746 16.3331 32.6414 15.4926 31.1203 13.891C29.6467 12.3528 28.9019 10.4341 28.9019 8.103C28.8069 5.93051 29.6467 3.94831 31.1837 2.41012ZM36.8721 12.4638C39.0905 12.4638 40.9602 10.6402 40.9602 8.103C40.9602 7.01583 40.5287 5.97318 39.7606 5.20444C38.9924 4.43569 37.9506 4.00381 36.8642 4.00381C35.7779 4.00381 34.7361 4.43569 33.9679 5.20444C33.1997 5.97318 32.7682 7.01583 32.7682 8.103C32.7207 10.6085 34.7013 12.4638 36.8721 12.4638Z" fill="#1D1E25"/>
<path d="M49.7068 0.412109V10.006C49.7068 11.7503 50.2614 12.6859 51.5291 12.6859C52.8918 12.6859 53.5097 11.8454 53.5097 10.006V0.412109H57.3126V10.1804C57.3126 13.9862 54.9833 16.2539 51.5291 16.2539C48.0114 16.2539 45.8406 14.0972 45.8406 10.1804V0.412109H49.7068Z" fill="#1D1E25"/>
<path d="M58.4535 16.0477V0.412109H63.6191C65.267 0.412109 66.5188 0.523113 67.5963 1.25256C68.959 2.21988 69.6878 3.69463 69.6878 5.6134C69.6878 7.67489 68.7847 9.30823 67.1843 10.2914C66.2177 10.8464 64.9659 10.9891 63.318 10.9891H62.2405V16.0477H58.4535ZM62.9853 7.64318C64.8709 7.64318 65.8216 7.11988 65.8216 5.75612C65.8216 4.4558 65.0293 3.9325 63.318 3.9325H62.3039V7.62732L62.9853 7.64318Z" fill="#1D1E25"/>
<path d="M72.5876 2.41012C74.1246 0.871933 76.0419 0.142483 78.2761 0.142483C79.3149 0.13375 80.3447 0.335808 81.3034 0.736456C82.262 1.1371 83.1296 1.72803 83.8536 2.47355C84.6248 3.20735 85.2387 4.09042 85.6582 5.06907C86.0777 6.04773 86.294 7.10153 86.2938 8.16643C86.2938 10.3865 85.5016 12.4321 84.0279 13.891C83.2904 14.6658 82.4028 15.282 81.4193 15.7018C80.4357 16.1217 79.377 16.3365 78.3078 16.3331C75.9785 16.3331 74.0454 15.4926 72.5242 13.891C71.0506 12.3528 70.3059 10.4341 70.3059 8.103C70.2108 5.93051 71.0506 3.94831 72.5876 2.41012ZM78.2602 12.4638C80.4786 12.4638 82.3483 10.6402 82.3483 8.103C82.3483 7.01583 81.9168 5.97318 81.1486 5.20444C80.3805 4.43569 79.3386 4.00381 78.2523 4.00381C77.166 4.00381 76.1241 4.43569 75.356 5.20444C74.5878 5.97318 74.1563 7.01583 74.1563 8.103C74.1087 10.6085 76.1053 12.4638 78.2602 12.4638Z" fill="#1D1E25"/>
<path d="M87.0227 16.0477V0.412109H90.477L96.1972 9.10208V0.412109H100V16.0477H96.6567L90.8731 7.35774V16.0477H87.0227Z" fill="#1D1E25"/>
</g>
<defs>
<clipPath id="clip0_1_3135">
<rect width="100" height="16.3333" fill="white"/>
</clipPath>
</defs>
</svg>
