<svg width="314" height="235" viewBox="0 0 314 235" fill="none" xmlns="http://www.w3.org/2000/svg">
<line x1="0.964193" y1="1.60076e-09" x2="0.964156" y2="234.375" stroke="white" stroke-opacity="0.18" stroke-width="0.260417" stroke-dasharray="4.17 6.25"/>
<line x1="21.7962" y1="1.60076e-09" x2="21.7962" y2="234.375" stroke="white" stroke-opacity="0.18" stroke-width="0.260417" stroke-dasharray="4.17 6.25"/>
<line x1="42.6302" y1="1.60076e-09" x2="42.6302" y2="234.375" stroke="white" stroke-opacity="0.18" stroke-width="0.260417" stroke-dasharray="4.17 6.25"/>
<line x1="63.4642" y1="1.60076e-09" x2="63.4642" y2="234.375" stroke="white" stroke-opacity="0.18" stroke-width="0.260417" stroke-dasharray="4.17 6.25"/>
<line x1="84.2962" y1="1.60076e-09" x2="84.2962" y2="234.375" stroke="white" stroke-opacity="0.18" stroke-width="0.260417" stroke-dasharray="4.17 6.25"/>
<line x1="105.13" y1="1.60076e-09" x2="105.13" y2="234.375" stroke="white" stroke-opacity="0.18" stroke-width="0.260417" stroke-dasharray="4.17 6.25"/>
<line x1="125.964" y1="1.60076e-09" x2="125.964" y2="234.375" stroke="white" stroke-opacity="0.18" stroke-width="0.260417" stroke-dasharray="4.17 6.25"/>
<line x1="146.798" y1="1.60076e-09" x2="146.798" y2="234.375" stroke="white" stroke-opacity="0.18" stroke-width="0.260417" stroke-dasharray="4.17 6.25"/>
<line x1="167.63" y1="1.60076e-09" x2="167.63" y2="234.375" stroke="white" stroke-opacity="0.18" stroke-width="0.260417" stroke-dasharray="4.17 6.25"/>
<line x1="188.464" y1="1.60076e-09" x2="188.464" y2="234.375" stroke="white" stroke-opacity="0.18" stroke-width="0.260417" stroke-dasharray="4.17 6.25"/>
<line x1="209.298" y1="1.60076e-09" x2="209.298" y2="234.375" stroke="white" stroke-opacity="0.18" stroke-width="0.260417" stroke-dasharray="4.17 6.25"/>
<line x1="230.13" y1="1.60076e-09" x2="230.13" y2="234.375" stroke="white" stroke-opacity="0.18" stroke-width="0.260417" stroke-dasharray="4.17 6.25"/>
<line x1="250.964" y1="1.60076e-09" x2="250.964" y2="234.375" stroke="white" stroke-opacity="0.18" stroke-width="0.260417" stroke-dasharray="4.17 6.25"/>
<line x1="271.798" y1="1.60076e-09" x2="271.798" y2="234.375" stroke="white" stroke-opacity="0.18" stroke-width="0.260417" stroke-dasharray="4.17 6.25"/>
<line x1="292.63" y1="1.60076e-09" x2="292.63" y2="234.375" stroke="white" stroke-opacity="0.18" stroke-width="0.260417" stroke-dasharray="4.17 6.25"/>
<line x1="313.464" y1="1.60076e-09" x2="313.464" y2="234.375" stroke="white" stroke-opacity="0.18" stroke-width="0.260417" stroke-dasharray="4.17 6.25"/>
</svg>
