<svg width="100" height="22" viewBox="0 0 100 22" fill="none" xmlns="http://www.w3.org/2000/svg">
<g clip-path="url(#clip0_1_3124)">
<path d="M35.298 12.292L34.7019 13.9795H34.6523C34.5529 13.599 34.3708 13.02 34.0728 12.3251L30.8774 4.3014H27.7483V17.0897H29.8178V9.19836C29.8178 8.70204 29.8178 8.13955 29.8013 7.44472C29.7847 7.0973 29.7516 6.8326 29.735 6.63407H29.7847C29.8841 7.13038 29.9999 7.49435 30.0827 7.72596L33.9238 17.0566H35.3807L39.1887 7.64324C39.2715 7.42817 39.3542 6.99803 39.437 6.63407H39.4867C39.437 7.57707 39.4039 8.4208 39.3874 8.93366V17.0401H41.5893V4.26831H38.5761L35.298 12.292ZM43.6754 7.87485H45.8278V17.0401H43.6754V7.87485ZM44.7682 4.00361C44.4039 4.00361 44.1059 4.13596 43.8576 4.36757C43.6092 4.59919 43.4768 4.89698 43.4768 5.26094C43.4768 5.60836 43.6092 5.90615 43.8576 6.13776C44.1059 6.36937 44.4039 6.48518 44.7682 6.48518C45.1324 6.48518 45.447 6.35283 45.6788 6.13776C45.9271 5.90615 46.0595 5.60836 46.0595 5.26094C46.0595 4.91352 45.9271 4.61573 45.6788 4.36757C45.4635 4.13596 45.1489 4.00361 44.7682 4.00361ZM53.4602 7.79213C53.0629 7.70942 52.649 7.65978 52.2516 7.65978C51.2748 7.65978 50.3807 7.87485 49.6357 8.30499C48.8907 8.73513 48.2946 9.33071 47.9139 10.0752C47.5165 10.8362 47.3178 11.713 47.3178 12.7222C47.3178 13.599 47.5165 14.3766 47.8973 15.0879C48.2781 15.7828 48.8079 16.3453 49.5198 16.7258C50.1986 17.1063 50.9933 17.3048 51.8874 17.3048C52.9138 17.3048 53.7913 17.0897 54.4867 16.6927L54.5033 16.6761V14.6909L54.4205 14.7571C54.1059 14.9887 53.7417 15.1872 53.3774 15.303C52.9966 15.4354 52.649 15.5015 52.3509 15.5015C51.49 15.5015 50.8112 15.2534 50.3311 14.7074C49.8344 14.178 49.586 13.4501 49.586 12.5402C49.586 11.5972 49.8344 10.8527 50.3476 10.3068C50.8609 9.76084 51.5397 9.4796 52.3675 9.4796C53.0629 9.4796 53.7748 9.71121 54.4205 10.1744L54.5033 10.2406V8.13955L54.4867 8.12301C54.2052 8.0072 53.8907 7.87485 53.4602 7.79213ZM60.5629 7.72596C60.0331 7.72596 59.5364 7.8914 59.1059 8.23882C58.7417 8.5366 58.4933 8.96674 58.2781 9.4796H58.2615V7.87485H56.1092V17.0401H58.2615V12.3582C58.2615 11.5641 58.4271 10.9024 58.7913 10.4226C59.1556 9.92628 59.6191 9.67813 60.1821 9.67813C60.3807 9.67813 60.5794 9.72776 60.8278 9.76084C61.0595 9.82702 61.2251 9.89319 61.341 9.97591L61.4238 10.0421V7.8914L61.3741 7.87485C61.2251 7.77559 60.9271 7.72596 60.5629 7.72596ZM66.4238 7.67633C64.9172 7.67633 63.7086 8.12301 62.8642 8.99983C62.0033 9.87665 61.5893 11.0843 61.5893 12.6064C61.5893 14.0291 62.0198 15.1872 62.8476 16.0309C63.6754 16.8581 64.8013 17.2883 66.2085 17.2883C67.6821 17.2883 68.8576 16.8416 69.7019 15.9482C70.5629 15.0549 70.9768 13.8637 70.9768 12.3913C70.9768 10.9355 70.5794 9.77739 69.7682 8.93366C68.99 8.08992 67.8476 7.67633 66.4238 7.67633ZM68.1456 14.724C67.7483 15.2368 67.1191 15.485 66.341 15.485C65.5629 15.485 64.9337 15.2368 64.4867 14.6909C64.0397 14.178 63.8244 13.4336 63.8244 12.4906C63.8244 11.5145 64.0562 10.77 64.4867 10.2406C64.9337 9.71121 65.5463 9.44651 66.3244 9.44651C67.086 9.44651 67.6821 9.69467 68.1125 10.2075C68.543 10.7204 68.7748 11.4649 68.7748 12.4409C68.7417 13.4336 68.5595 14.2111 68.1456 14.724ZM75.7781 11.6799C75.0993 11.3987 74.6688 11.1836 74.4701 11.0016C74.3046 10.8362 74.2218 10.6046 74.2218 10.3068C74.2218 10.0586 74.3211 9.81047 74.5695 9.64504C74.8178 9.4796 75.0993 9.39688 75.5132 9.39688C75.8774 9.39688 76.2582 9.46306 76.6225 9.56232C76.9867 9.66158 77.3178 9.81048 77.5827 10.009L77.6655 10.0752V8.05684L77.6158 8.04029C77.3675 7.94103 77.0364 7.84177 76.639 7.75905C76.2417 7.69287 75.8774 7.65978 75.5794 7.65978C74.5529 7.65978 73.7086 7.90794 73.0463 8.45389C72.384 8.96674 72.0695 9.66158 72.0695 10.4722C72.0695 10.9024 72.1357 11.2829 72.2847 11.5972C72.4337 11.9115 72.6489 12.2093 72.947 12.4575C73.245 12.6891 73.6754 12.9538 74.2715 13.2019C74.7682 13.417 75.1489 13.5825 75.3807 13.7148C75.6125 13.8472 75.7615 13.996 75.8774 14.1119C75.9602 14.2442 76.0099 14.4096 76.0099 14.6247C76.0099 15.2368 75.5463 15.5346 74.6026 15.5346C74.2384 15.5346 73.8576 15.4684 73.4105 15.3196C72.9635 15.1707 72.5496 14.9556 72.2019 14.7074L72.1191 14.6413V16.7423L72.1688 16.7589C72.4834 16.9078 72.8642 17.007 73.3278 17.1228C73.7913 17.2055 74.2052 17.2717 74.5695 17.2717C75.6787 17.2717 76.5893 17.0236 77.235 16.4776C77.8973 15.9482 78.245 15.2699 78.245 14.3931C78.245 13.781 78.0794 13.235 77.7152 12.8214C77.235 12.4244 76.639 12.0108 75.7781 11.6799ZM83.9238 7.67633C82.4172 7.67633 81.2085 8.12301 80.3642 8.99983C79.5198 9.87665 79.0893 11.0843 79.0893 12.6064C79.0893 14.0291 79.5198 15.1872 80.3476 16.0309C81.1754 16.8581 82.3013 17.2883 83.7085 17.2883C85.1821 17.2883 86.3576 16.8416 87.2019 15.9482C88.0629 15.0549 88.4768 13.8637 88.4768 12.3913C88.4768 10.9355 88.0794 9.77739 87.2681 8.93366C86.49 8.08992 85.3476 7.67633 83.9238 7.67633ZM85.6291 14.724C85.2317 15.2368 84.6026 15.485 83.8244 15.485C83.0297 15.485 82.4172 15.2368 81.9701 14.6909C81.5231 14.178 81.3079 13.4336 81.3079 12.4906C81.3079 11.5145 81.5397 10.77 81.9701 10.2406C82.4172 9.71121 83.0297 9.44651 83.8079 9.44651C84.5529 9.44651 85.1655 9.69467 85.596 10.2075C86.0264 10.7204 86.2582 11.4649 86.2582 12.4409C86.2582 13.4336 86.043 14.2111 85.6291 14.724ZM99.9834 9.64504V7.87485H97.8145V5.16168L97.7483 5.17822L95.6953 5.79034L95.6456 5.80688V7.87485H92.4006V6.71679C92.4006 6.18739 92.5331 5.7738 92.7648 5.50909C92.9966 5.24439 93.3443 5.11204 93.7748 5.11204C94.0728 5.11204 94.3874 5.17822 94.735 5.32711L94.8178 5.37674V3.5073L94.7682 3.49076C94.4701 3.39149 94.0728 3.32532 93.5595 3.32532C92.9138 3.32532 92.3509 3.47421 91.8377 3.72237C91.3244 4.00361 90.9436 4.38412 90.6622 4.89698C90.3807 5.39329 90.2317 5.95578 90.2317 6.60098V7.87485H88.7251V9.62849H90.2317V17.0401H92.4006V9.64504H95.6456V14.36C95.6456 16.2956 96.5562 17.2717 98.3774 17.2717C98.6754 17.2717 98.99 17.2221 99.288 17.1725C99.6026 17.1063 99.8344 17.0236 99.9668 16.9574L99.9834 16.9408V15.1707L99.9006 15.2368C99.7682 15.3196 99.6523 15.3857 99.4536 15.4354C99.288 15.485 99.139 15.5015 99.0231 15.5015C98.5927 15.5015 98.2946 15.4023 98.0794 15.1541C97.8807 14.9225 97.7814 14.542 97.7814 13.9795V9.64504H99.9834Z" fill="#737373"/>
<path d="M0 0H10.149V10.1413H0V0Z" fill="#F25022"/>
<path d="M11.2085 0H21.3575V10.1413H11.2085V0Z" fill="#7FBA00"/>
<path d="M0 11.2001H10.149V21.3414H0V11.2001Z" fill="#00A4EF"/>
<path d="M11.2085 11.2001H21.3575V21.3414H11.2085V11.2001Z" fill="#FFB900"/>
</g>
<defs>
<clipPath id="clip0_1_3124">
<rect width="100" height="21.3415" fill="white"/>
</clipPath>
</defs>
</svg>
