<svg width="100" height="32" viewBox="0 0 100 32" fill="none" xmlns="http://www.w3.org/2000/svg">
<g clip-path="url(#clip0_1_3132)">
<path d="M52.7024 7.87266C52.7024 9.00179 51.7965 9.91137 50.6718 9.91137C49.5472 9.91137 48.6412 9.00179 48.6412 7.87266C48.6412 6.74353 49.5159 5.83396 50.6718 5.83396C51.8277 5.86532 52.7024 6.7749 52.7024 7.87266ZM44.3301 11.9814C44.3301 12.1696 44.3301 12.4833 44.3301 12.4833C44.3301 12.4833 43.3616 11.2287 41.2998 11.2287C37.8946 11.2287 35.2392 13.832 35.2392 17.4389C35.2392 21.0145 37.8633 23.6491 41.2998 23.6491C43.3928 23.6491 44.3301 22.3632 44.3301 22.3632V22.8964C44.3301 23.1473 44.5175 23.3355 44.7674 23.3355H47.2979V11.5423C47.2979 11.5423 44.9861 11.5423 44.7674 11.5423C44.5175 11.5423 44.3301 11.7619 44.3301 11.9814ZM44.3301 19.5403C43.8615 20.2304 42.9242 20.8263 41.7996 20.8263C39.8002 20.8263 38.2695 19.5717 38.2695 17.4389C38.2695 15.3061 39.8002 14.0515 41.7996 14.0515C42.893 14.0515 43.8927 14.6788 44.3301 15.3375V19.5403ZM49.1723 11.5423H52.1714V23.3355H49.1723V11.5423ZM93.9708 11.2287C91.9089 11.2287 90.9405 12.4833 90.9405 12.4833V5.86532H87.9414V23.3355C87.9414 23.3355 90.2532 23.3355 90.4719 23.3355C90.7218 23.3355 90.9092 23.1159 90.9092 22.8964V22.3632C90.9092 22.3632 91.8777 23.6491 93.9396 23.6491C97.3447 23.6491 100 21.0145 100 17.4389C100 13.8633 97.3447 11.2287 93.9708 11.2287ZM93.471 20.7949C92.3151 20.7949 91.4091 20.199 90.9405 19.509V15.3061C91.4091 14.6788 92.4088 14.0201 93.471 14.0201C95.4703 14.0201 97.0011 15.2747 97.0011 17.4075C97.0011 19.5403 95.4703 20.7949 93.471 20.7949ZM86.3794 16.3411V23.3668H83.3803V16.6861C83.3803 14.7415 82.7555 13.9574 81.0686 13.9574C80.1626 13.9574 79.2254 14.4279 78.6318 15.1179V23.3355H75.6328V11.5423H78.007C78.257 11.5423 78.4444 11.7619 78.4444 11.9814V12.4833C79.3191 11.5737 80.475 11.2287 81.6309 11.2287C82.943 11.2287 84.0364 11.6051 84.9111 12.3578C85.9733 13.236 86.3794 14.3652 86.3794 16.3411ZM68.3538 11.2287C66.2919 11.2287 65.3235 12.4833 65.3235 12.4833V5.86532H62.3244V23.3355C62.3244 23.3355 64.6362 23.3355 64.8549 23.3355C65.1048 23.3355 65.2923 23.1159 65.2923 22.8964V22.3632C65.2923 22.3632 66.2607 23.6491 68.3226 23.6491C71.7277 23.6491 74.3832 21.0145 74.3832 17.4389C74.4144 13.8633 71.759 11.2287 68.3538 11.2287ZM67.854 20.7949C66.6981 20.7949 65.7921 20.199 65.3235 19.509V15.3061C65.7921 14.6788 66.7918 14.0201 67.854 14.0201C69.8533 14.0201 71.3841 15.2747 71.3841 17.4075C71.3841 19.5403 69.8533 20.7949 67.854 20.7949ZM59.7315 11.2287C60.6375 11.2287 61.1061 11.3855 61.1061 11.3855V14.177C61.1061 14.177 58.6068 13.3301 57.0448 15.1179V23.3668H54.0458V11.5423C54.0458 11.5423 56.3576 11.5423 56.5762 11.5423C56.8262 11.5423 57.0136 11.7619 57.0136 11.9814V12.4833C57.5759 11.8246 58.7943 11.2287 59.7315 11.2287ZM28.585 22.2691C28.4288 21.8927 28.2726 21.4849 28.1164 21.1399C27.8665 20.5754 27.6165 20.0422 27.3978 19.5403L27.3666 19.509C25.211 14.8043 22.8993 10.0368 20.4625 5.33212L20.3688 5.14393C20.1189 4.67346 19.869 4.17163 19.619 3.66979C19.3066 3.10523 18.9942 2.5093 18.4944 1.94473C17.4947 0.690145 16.0576 0.00012207 14.5269 0.00012207C12.9649 0.00012207 11.5591 0.690145 10.5281 1.882C10.0595 2.44657 9.71588 3.0425 9.40347 3.60706C9.15355 4.1089 8.90363 4.61073 8.65371 5.0812L8.55999 5.26939C6.15449 9.9741 3.81147 14.7415 1.65589 19.4462L1.62465 19.509C1.40597 20.0108 1.15605 20.544 0.906129 21.1086C0.749928 21.4536 0.593726 21.83 0.437525 22.2377C0.0314022 23.3982 -0.0935588 24.4959 0.0626424 25.6251C0.406285 27.9774 1.9683 29.9534 4.12387 30.8316C4.93612 31.1766 5.77961 31.3335 6.65433 31.3335C6.90425 31.3335 7.21666 31.3021 7.46658 31.2707C8.49751 31.1453 9.55968 30.8003 10.5906 30.2043C11.8715 29.4829 13.0898 28.4479 14.4644 26.9424C15.839 28.4479 17.0886 29.4829 18.3382 30.2043C19.3691 30.8003 20.4313 31.1453 21.4622 31.2707C21.7121 31.3021 22.0245 31.3335 22.2745 31.3335C23.1492 31.3335 24.0239 31.1766 24.8049 30.8316C26.9917 29.9534 28.5225 27.9461 28.8661 25.6251C29.1161 24.5273 28.9911 23.4296 28.585 22.2691ZM14.4956 23.9C12.8087 21.7672 11.7153 19.7599 11.3404 18.0662C11.1842 17.3448 11.1529 16.7175 11.2466 16.1529C11.3091 15.6511 11.4966 15.212 11.7465 14.8356C12.3401 13.9888 13.3397 13.4556 14.4956 13.4556C15.6515 13.4556 16.6824 13.9574 17.2448 14.8356C17.4947 15.212 17.6821 15.6511 17.7446 16.1529C17.8383 16.7175 17.8071 17.3762 17.6509 18.0662C17.276 19.7285 16.1826 21.7359 14.4956 23.9ZM26.9605 25.3742C26.7418 27.0051 25.6484 28.4165 24.1176 29.0438C23.3679 29.3575 22.5556 29.4516 21.7434 29.3575C20.9624 29.2634 20.1814 29.0125 19.3691 28.542C18.2445 27.9147 17.1198 26.9424 15.8077 25.4996C17.8696 22.9591 19.1192 20.6381 19.5878 18.568C19.8065 17.5957 19.8377 16.7175 19.744 15.902C19.619 15.1179 19.3379 14.3965 18.9005 13.7692C17.9321 12.3578 16.3076 11.5423 14.4956 11.5423C12.6837 11.5423 11.0592 12.3892 10.0908 13.7692C9.6534 14.3965 9.37223 15.1179 9.24727 15.902C9.12231 16.7175 9.15355 17.6271 9.40347 18.568C9.87208 20.6381 11.1529 22.9904 13.1835 25.531C11.9027 26.9738 10.7468 27.9461 9.62215 28.5734C8.80991 29.0438 8.0289 29.2947 7.2479 29.3888C6.40441 29.4829 5.59216 29.3575 4.87364 29.0752C3.34287 28.4479 2.24946 27.0365 2.03078 25.4055C1.93706 24.6214 1.99954 23.8373 2.31194 22.9591C2.40566 22.6454 2.56186 22.3318 2.71806 21.9554C2.93674 21.4536 3.18667 20.9204 3.43659 20.3872L3.46783 20.3244C5.6234 15.6511 7.93518 10.8837 10.3407 6.2417L10.4344 6.05351C10.6843 5.58304 10.9342 5.0812 11.1842 4.61073C11.4341 4.1089 11.7153 3.63843 12.0589 3.23069C12.7149 2.47793 13.5897 2.07019 14.5581 2.07019C15.5266 2.07019 16.4013 2.47793 17.0573 3.23069C17.401 3.63843 17.6821 4.1089 17.9321 4.61073C18.182 5.0812 18.4319 5.58304 18.6818 6.05351L18.7755 6.2417C21.1498 10.915 23.4616 15.6825 25.6172 20.3558V20.3872C25.8671 20.889 26.0858 21.4536 26.3357 21.9554C26.4919 22.3318 26.6481 22.6454 26.7418 22.9591C26.9917 23.7746 27.0854 24.5587 26.9605 25.3742Z" fill="#FF385C"/>
</g>
<defs>
<clipPath id="clip0_1_3132">
<rect width="100" height="31.3333" fill="white"/>
</clipPath>
</defs>
</svg>
